<svg width="196" height="43" viewBox="0 0 196 43" fill="none" xmlns="http://www.w3.org/2000/svg">
<path d="M24.6995 30.3869C24.6995 28.4473 23.4825 27.1549 20.9279 26.4494C18.494 25.7439 15.6959 25.0385 12.7148 24.2747C4.62446 22.2768 0.609462 18.6311 0.609462 13.343C0.792494 4.93762 5.9641 0.823264 16.1866 0.883464C25.9223 0.883464 30.9693 4.99781 31.4541 13.2847H26.709C25.9077 13.3068 25.1184 13.0938 24.4448 12.674C23.7712 12.2543 23.245 11.6474 22.9354 10.9331C21.5373 8.64176 19.0411 7.52428 15.4525 7.52428C11.0715 7.5826 8.88287 9.17037 8.69984 12.2274C8.69984 14.7539 11.3168 16.5768 16.7299 17.7526C20.0633 18.5029 23.3528 19.4245 26.5843 20.514C31.2068 22.0416 33.3967 25.3332 33.154 30.3887C32.6672 38.2052 27.1918 42.0844 16.7299 42.0844C6.26786 42.0844 0.243393 37.6766 0 28.9778H8.21305C8.51875 33.2087 11.3148 35.3251 16.7299 35.3251C22.1449 35.3251 24.7599 33.679 24.6975 30.3869H24.6995Z" fill="#483888"/>
<path d="M51.6456 42.1967C41.9098 41.9033 37.042 36.4363 37.042 25.8562C37.042 15.2762 41.9702 9.98793 51.7643 9.92773C61.9855 9.92773 66.7885 16.0011 66.1732 28.1476H45.3796C45.6834 32.909 47.8135 35.3189 51.7662 35.3189C53.7477 35.2741 55.6296 34.4709 56.9982 33.0859C57.3437 32.7193 57.7674 32.4296 58.24 32.2366C58.7127 32.0437 59.2231 31.9522 59.7359 31.9684H65.6981C63.934 38.5528 59.5529 42.1967 51.6456 42.1967ZM45.5004 22.5659H57.6058C57.119 18.4517 55.1115 16.3352 51.6436 16.3352C48.1757 16.3352 46.1079 18.4517 45.4984 22.5659H45.5004Z" fill="#483888"/>
<path d="M84.6777 42.1967C74.9419 42.1967 69.9573 36.79 69.7119 26.0914C69.7119 15.453 74.6402 10.1008 84.555 9.92773C92.3436 9.92773 96.9661 13.2783 98.3641 20.0357H89.5436C89.138 19.0311 88.413 18.1767 87.4728 17.5955C86.5326 17.0144 85.4257 16.7365 84.3116 16.8019C80.0532 16.8019 77.925 19.9173 77.925 26.0877C77.925 32.2582 80.1759 35.3733 84.6777 35.3056C85.6093 35.3035 86.529 35.1022 87.3707 34.7161C88.2123 34.33 88.955 33.7688 89.5455 33.0725C89.8982 32.7149 90.3232 32.4312 90.7942 32.2389C91.2652 32.0467 91.772 31.9501 92.2832 31.9551H98.368C97.8374 35.0111 96.1337 37.7614 93.5968 39.6573C91.0599 41.5532 87.8765 42.4553 84.6816 42.1834L84.6777 42.1967Z" fill="#483888"/>
<path d="M129.693 29.0949C129.693 34.4451 128.295 37.9706 125.435 39.675C122.549 41.2785 119.273 42.1101 115.944 42.0846C112.695 42.1214 109.512 41.1988 106.82 39.4398C104.022 37.7354 102.622 34.3248 102.622 29.093V10.4047H110.713V30.6808C110.713 34.1498 112.537 35.8542 116.186 35.8542C119.835 35.8542 121.659 34.1517 121.659 30.6808V14.2838C121.562 13.764 121.594 13.2292 121.754 12.7239C121.913 12.2185 122.195 11.7571 122.575 11.3779C122.956 10.9987 123.425 10.7126 123.943 10.5434C124.461 10.3741 125.013 10.3266 125.554 10.4047H129.691V29.0949H129.693Z" fill="#483888"/>
<path d="M133.22 25.4532C133.463 15.4036 138.999 10.4033 149.77 10.4033H150.927V18.5152H148.189C143.688 18.5152 141.437 20.8066 141.437 25.3347V41.4963H133.22V25.4532Z" fill="#483888"/>
<path d="M160.108 1.53118C160.644 1.45092 161.192 1.49497 161.706 1.65955C162.221 1.82414 162.688 2.10455 163.068 2.47777C163.449 2.851 163.732 3.30628 163.894 3.80603C164.057 4.30578 164.094 4.83566 164.003 5.35199V7.64337H155.912V1.53118H160.108ZM160.108 10.4069C160.638 10.3303 161.179 10.3749 161.687 10.5369C162.196 10.6989 162.658 10.9738 163.037 11.3397C163.416 11.7056 163.7 12.1522 163.868 12.6436C164.036 13.1351 164.082 13.6576 164.003 14.1694V41.4981H155.912V10.4069H160.108Z" fill="#483888"/>
<path d="M191.86 41.4979C189.183 41.321 187.845 40.0869 187.845 37.6187V21.6282C187.662 18.3944 185.838 16.8085 182.249 16.8085C178.66 16.8085 176.836 18.3963 176.774 21.6282V41.4942H168.561V23.216C168.561 14.3403 173.183 9.93274 182.37 9.93274C191.556 9.93274 196.056 14.3403 196 23.216V41.4942H191.864L191.86 41.4979Z" fill="#483888"/>
<path d="M133.241 18.9942V10.3405C133.241 10.3363 133.242 10.3322 133.244 10.3283C133.245 10.3245 133.248 10.321 133.251 10.318C133.254 10.315 133.258 10.3125 133.262 10.3109C133.266 10.3093 133.27 10.3086 133.274 10.3086H142.465C142.504 10.3086 142.508 10.3556 142.465 10.3688C140.273 10.8776 138.265 11.9489 136.651 13.4694C135.037 14.9899 133.879 16.9034 133.298 19.0075C133.29 19.0357 133.241 19.0337 133.241 18.9942Z" fill="#ED7B22"/>
</svg>
